<svg xmlns="http://www.w3.org/2000/svg" width="900" height="1100" viewBox="0 0 900 1100">
  <defs>
    <linearGradient id="g" x1="0" y1="0" x2="1" y2="1">
      <stop offset="0%" stop-color="#ffe4e6"/>
      <stop offset="100%" stop-color="#fbcfe8"/>
    </linearGradient>
    <filter id="shadow" x="-20%" y="-20%" width="140%" height="140%">
      <feDropShadow dx="0" dy="24" stdDeviation="28" flood-color="#be185d" flood-opacity="0.25"/>
    </filter>
  </defs>
  <rect width="900" height="1100" fill="url(#g)"/>
  <circle cx="160" cy="160" r="110" fill="white" opacity="0.25"/>
  <circle cx="760" cy="260" r="150" fill="white" opacity="0.20"/>
  <circle cx="690" cy="930" r="180" fill="white" opacity="0.18"/>
  <g filter="url(#shadow)">
    <path d="M450 735 C280 610 180 505 180 360 C180 248 262 172 365 172 C421 172 463 201 450 201 C487 201 522 172 590 172 C692 172 770 248 770 360 C770 505 620 620 450 735Z" fill="white" opacity="0.92"/>
  </g>
  <text x="450" y="840" text-anchor="middle" font-family="Georgia, serif" font-size="66" fill="#be185d">Recuerdo 1</text>
  <text x="450" y="900" text-anchor="middle" font-family="Arial, sans-serif" font-size="28" fill="#831843" opacity="0.82">Una historia bonita</text>
  <text x="450" y="965" text-anchor="middle" font-family="Arial, sans-serif" font-size="22" fill="#9d174d" opacity="0.65">Reemplaza esta imagen por una foto real</text>
</svg>